# xmcd CD database file
#
# Track frame offsets:
#	150
#	14996
#	33706
#	50248
#	67724
#	85764
#	102145
#	126009
#	141298
#	155207
#	170137
#	198584
#	332969
#
# Disc length: 4440 seconds
#
# Revision: 5
# Processed by: cddbd v1.5.2PL0 Copyright (c) Steve Scherf et al.
# Submitted via: CDex 1.70beta2
#
DISCID=c711560d
DTITLE=側田 - Justin
DYEAR=2005
DGENRE=Pop
TTITLE0=好人
TTITLE1=我不是好人
TTITLE2=Superstar
TTITLE3=Loving You
TTITLE4=Erica
TTITLE5=命硬
TTITLE6=我有今日
TTITLE7=冰淇淋之味
TTITLE8=Best Thing In My Life
TTITLE9=White X'mas
TTITLE10=好人﹝Original﹞
TTITLE11=Data
TTITLE12=Null
EXTD=YEAR: 2005
EXTT0=
EXTT1=
EXTT2=
EXTT3=
EXTT4=
EXTT5=
EXTT6=
EXTT7=
EXTT8=
EXTT9=
EXTT10=
EXTT11=
EXTT12=
PLAYORDER=
